<?xml version="1.0" encoding="UTF-8"?>
<svg width="70px" height="49px" viewBox="0 0 70 49" version="1.1" xmlns="http://www.w3.org/2000/svg" xmlns:xlink="http://www.w3.org/1999/xlink">
    <!-- Generator: Sketch 61.2 (89653) - https://sketch.com -->
    <title>Group 13</title>
    <desc>Created with Sketch.</desc>
    <defs>
        <polygon id="path-1" points="0.0133774194 0.0241463415 21.8927323 0.0241463415 21.8927323 21.9470211 0.0133774194 21.9470211"></polygon>
        <polygon id="path-3" points="0 0.0649818182 69.9347977 0.0649818182 69.9347977 48 0 48"></polygon>
    </defs>
    <g id="Page-1" stroke="none" stroke-width="1" fill="none" fill-rule="evenodd">
        <g id="CodeFooDesktop" transform="translate(-30.000000, -20.000000)">
            <g id="Group-13" transform="translate(30.000000, 20.000000)">
                <path d="M25.7579838,17.8887687 L20.0251811,21.0004102 L14.4470384,24.0282839 C13.8509872,24.351865 13.8509872,25.2208636 14.4470384,25.5444447 L20.0251811,28.5723184 L25.7579838,31.6841452 C26.3205162,31.9893789 27,31.5746169 27,30.9259722 L27,24.786457 L27,18.6469418 C27,17.9981117 26.3205162,17.5833497 25.7579838,17.8887687" id="Fill-1" fill="#FFFFFF"></path>
                <path d="M28.1019478,15.4956498 C27.9853738,15.7186316 27.9744392,15.959028 28.0404174,16.1714096 C28.0672906,16.5005822 28.3339838,16.7864078 28.6938991,16.7864078 L28.8599568,16.7864078 L34.9998299,16.7864078 L41.138591,16.7864078 L41.1395176,16.7864078 C41.7883659,16.7864078 42.2029542,16.0801726 41.897712,15.4956498 L38.7856123,9.53893172 L35.7578389,3.74254091 C35.7103938,3.65168245 35.6503462,3.57596708 35.5826999,3.511609 L35.4032982,3.15196096 C35.1581036,2.66113601 34.4699649,2.66548965 34.2310716,3.15953249 L30.2816407,11.3231646 L28.1019478,15.4956498 Z" id="Fill-3" fill="#FFFFFF"></path>
                <g id="Group-7" transform="translate(11.000000, 0.786408)">
                    <mask id="mask-2" fill="white">
                        <use xlink:href="#path-1"></use>
                    </mask>
                    <g id="Clip-6"></g>
                    <path d="M8.22629677,17.5293138 C9.91071613,13.277948 13.3012,9.89567154 17.5418774,8.24531382 L19.2903452,4.94137886 L21.8927323,0.0241105691 C10.2109097,0.779801626 0.833764516,10.1897203 0.0133774194,21.9470211 L5.08136129,19.2209886 L8.22629677,17.5293138 Z" id="Fill-5" fill="#FFFFFF" mask="url(#mask-2)"></path>
                </g>
                <path d="M50.5444313,31.2298966 C48.8947692,35.2922735 45.6604525,38.5661676 41.5950962,40.3039232 L39.6717077,43.8544337 L37,48.7864078 C48.7791796,47.7914519 58.164943,38.4359528 59,26.7864078 L53.7840436,29.5273926 L50.5444313,31.2298966 Z" id="Fill-8" fill="#FFFFFF"></path>
                <g id="Group-12" transform="translate(0.000000, 0.786408)">
                    <mask id="mask-4" fill="white">
                        <use xlink:href="#path-3"></use>
                    </mask>
                    <g id="Clip-11"></g>
                    <path d="M69.8326462,4.03789091 C68.8707744,1.9868 62.2907744,3.03425455 53.0488,6.62316364 C52.8867231,6.68607273 52.7903385,6.85825455 52.8215692,7.03098182 C52.8615949,7.25407273 53.0922359,7.38461818 53.3022359,7.30661818 C59.2734154,5.0848 63.3490308,4.4788 64.1560051,6.02334545 C64.7779282,7.21352727 62.0055692,10.8771636 56.9025692,15.2451636 C53.6773641,6.93116364 46.0075179,0.8648 36.8689282,0.0649818182 L39.4802872,5.02298182 L41.3891333,8.64770909 C45.3785949,10.4073455 48.5519282,13.7155273 50.1700051,17.8189818 L52.2351846,18.9353455 C51.5967487,19.4040727 50.9369538,19.8749818 50.2572359,20.3466182 L50.1664154,20.2973455 L44.5181333,17.2446182 C43.9636974,16.9449818 43.2942103,17.3520727 43.2942103,17.9884364 L43.2942103,24.0117091 L43.2942103,24.7489818 C41.4542872,25.8062545 39.5265949,26.8348 37.5240564,27.8115273 C31.9186718,30.5453455 26.4798513,32.6473455 21.6618769,34.1495273 C20.7604923,32.9524364 20.0134667,31.6298909 19.4531077,30.2113455 L16.2688256,28.4902545 L11.1421333,25.7193455 C11.4038256,29.4746182 12.5204154,32.9937091 14.2950051,36.0788 L13.6718256,36.2293455 C8.52467179,37.2655273 4.94426154,37.2869818 3.98221026,36.3638909 C2.89703077,35.3229818 5.18692821,33.0058909 9.50341538,30.0126182 C9.71592821,29.8651636 9.75541538,29.5628 9.58544103,29.3666182 C9.44526154,29.2046182 9.2063641,29.1718909 9.02759487,29.2888 C2.19505641,33.7642545 -1.1956359,37.7609818 0.38205641,39.4417091 C1.78438974,40.9355273 7.74408205,40.7346182 16.0213128,38.6766182 C20.0734154,43.9926182 26.2712872,47.5480727 33.2906718,48.0000727 L30.6434154,42.9737091 L28.892159,39.6489818 C26.9714667,38.9004364 25.223441,37.7982545 23.7241846,36.4228 C25.3201846,35.8904364 26.9635692,35.3035273 28.6441077,34.6613455 L31.3218769,39.7451636 L34.2543385,45.3126182 C34.5677231,45.9077091 35.4095179,45.9077091 35.7227231,45.3126182 L38.6551846,39.7451636 L41.6689538,34.0233455 C41.9645692,33.4618909 41.5630564,32.7837091 40.9346718,32.7837091 L34.9886205,32.7837091 L33.2840308,32.7837091 C35.2576718,31.9402545 37.2663128,31.0251636 39.2943385,30.0360727 C40.6607744,29.3697091 41.9941846,28.6797091 43.2942103,27.9731636 L43.2942103,30.0349818 C43.2942103,30.6713455 43.9636974,31.0782545 44.5181333,30.7788 L50.1664154,27.7258909 L55.6626718,24.7553455 C56.2497744,24.4380727 56.2497744,23.5853455 55.6626718,23.2678909 L53.1259795,21.8969818 C53.8003128,21.4260727 54.4588513,20.9544364 55.099441,20.4833455 L58.4786462,22.3097091 C58.3851333,20.9604364 58.1796205,19.6420727 57.8744923,18.3628 C66.0605436,11.8629818 70.6936462,5.87352727 69.8326462,4.03789091" id="Fill-10" fill="#FFFFFF" mask="url(#mask-4)"></path>
                </g>
            </g>
        </g>
    </g>
</svg>