<svg xmlns="http://www.w3.org/2000/svg" class="ign-icon icon-classic" focusable="false" viewBox="0 0 87 87" aria-hidden="true" role="presentation" style="cursor: inherit; user-select: none; aspect-ratio: 1 / 1; width: 1em; height: 1em; display: inline-block; flex-shrink: 0; font-size: 3.375rem;"><rect x="2" y="2" fill="#FFF" width="80.55" height="80.55" rx="4" stroke-width="2"/><path transform="translate(16,16)" d="M12.5325367,17.4969167 C9.83593119,17.7924722 7.37392202,18.1949722 5.19799235,18.6919167 C7.64553058,12.4408056 12.6357813,7.45969444 18.8983624,5.01636111 C18.4007844,7.18802778 17.9972676,9.64580556 17.7003349,12.3380278 C15.6474083,13.6910833 13.8875183,15.44775 12.5325367,17.4969167 Z M37.561544,12.2788056 C37.2481924,9.60102778 36.8327092,7.15852778 36.3292872,4.99852778 C42.6141312,7.43463889 47.6238621,12.4246389 50.0786358,18.6915833 C47.9018713,18.1949167 45.4401404,17.7924167 42.7435349,17.4968611 C41.3866052,15.4454722 39.6247673,13.6876944 37.5690578,12.3343611 C37.5659966,12.3154722 37.5651618,12.2976944 37.561544,12.2788056 Z M17.7001401,42.4921667 C17.9967945,45.1849444 18.4005896,47.6427222 18.8978893,49.8141111 C12.6219505,47.3655 7.62446422,42.3677222 5.18249174,36.098 C7.32419205,36.5932778 9.75586789,37.0027222 12.4711187,37.3216111 C12.4911554,37.3252222 12.5100789,37.3260556 12.5298373,37.3296667 C13.8850972,39.3799444 15.645822,41.1382778 17.7001401,42.4921667 Z M42.8041737,37.3216667 C45.5171982,37.005 47.9485957,36.5963889 50.092244,36.1008333 C47.6444275,42.3855556 42.6271829,47.3911111 36.3298159,49.8316667 C36.8326813,47.6727778 37.2481645,45.2316667 37.5615162,42.555 C37.5654122,42.535 37.5662471,42.5161111 37.5695865,42.4961111 C39.6264092,41.1422222 41.3893602,39.3830556 42.7460116,37.3297222 C42.76577,37.3263889 42.7844153,37.3252778 42.8041737,37.3216667 Z M55.0276165,22.9458611 L55.0276165,31.83475 C50.8179621,33.7775278 44.5431364,34.5544722 42.4245339,34.7994722 C41.9135982,34.8958611 41.4360569,34.9414167 40.9740997,34.9414167 L34.2284116,27.4155833 L40.9740997,19.8889167 C41.3628673,19.8889167 41.7716716,19.9266944 42.2236104,20.0039167 C44.3923046,20.2350278 50.7726012,20.9803056 55.0276165,22.9458611 Z M14.3035859,19.8889167 L21.0476043,27.4155833 L14.3035859,34.9414167 C13.8405156,34.9414167 13.3615829,34.8958611 12.8520385,34.7994722 C10.7342709,34.5528056 4.45777554,33.7775278 0.247007951,31.8325278 L0.247007951,22.9478056 C4.5028581,20.9803056 10.8837113,20.2350278 13.0510141,20.0039167 C13.5060141,19.9266944 13.9137052,19.8889167 14.3035859,19.8889167 Z M20.098644,40.7283611 L27.6388428,33.99475 L35.1782067,40.7283611 C35.1782067,41.1889167 35.1311761,41.6666944 35.0346104,42.1761389 C34.7894391,44.2889167 34.0088428,50.5530833 32.0619437,54.7550278 L23.160641,54.7550278 C21.1898092,50.5091944 20.4439988,44.1391944 20.2121853,41.9755833 C20.1356563,41.5253056 20.098644,41.1153056 20.098644,40.7283611 Z M23.160641,0.0764166667 L32.0619437,0.0764166667 C34.0088428,4.28058333 34.7894391,10.5436389 35.0346104,12.6578056 C35.1311761,13.1669722 35.1782067,13.64225 35.1782067,14.1039167 L27.6388428,20.8391944 L20.098644,14.1039167 C20.098644,13.7180833 20.1356563,13.3089167 20.2121853,12.8575278 C20.4439988,10.6930833 21.1898092,4.32363889 23.160641,0.0764166667 Z" fill="#BF1313"/></svg>